PathFileType	4	(X/Y/Z)	C:\Users\WrightLab\Desktop\Jo\P1_boxCal31.trc
DataRate	CameraRate	NumFrames	NumMarkers	Units	OrigDataRate	OrigDataStartFrame	OrigNumFrames
100.00	100.00	       46	19	mm	100.00	93	       740
Frame#	Time	Headset_Front			Headset_Back			Headset_Left			Headset_Right			Left_Shoulder			Right_Shoulder			Sternum			C7			Left Elbow			Right Elbow			Left Wrist			Right Wrist			Left ASIS			Right ASIS			S2			Left Knee			Right Knee			Left Ankle			Right Ankle			
		X1	Y1	Z1	X2	Y2	Z2	X3	Y3	Z3	X4	Y4	Z4	X5	Y5	Z5	X6	Y6	Z6	X7	Y7	Z7	X8	Y8	Z8	X9	Y9	Z9	X10	Y10	Z10	X11	Y11	Z11	X12	Y12	Z12	X13	Y13	Z13	X14	Y14	Z14	X15	Y15	Z15	X16	Y16	Z16	X17	Y17	Z17	X18	Y18	Z18	X19	Y19	Z19	

93	0.920																															42.56823	729.51093	-1571.91760				-136.55524	871.22107	-1450.94165							-85.66497	420.18634	-1593.13367	-414.66956	409.80087	-1531.87476	-114.66213	48.86879	-1618.47913				
94	0.930																															41.57901	728.25653	-1568.99133				-137.77463	877.49854	-1443.74512							-85.66497	420.18634	-1593.13367	-414.93301	409.46463	-1533.24866	-114.76531	48.79473	-1618.74854				
95	0.940																															41.71932	728.15521	-1568.66919				-137.84363	877.28552	-1444.17444							-85.66497	420.18634	-1593.13367	-415.27264	408.93311	-1534.99609	-114.66213	48.86879	-1618.47913				
96	0.950																															41.34550	728.04504	-1567.79199				-138.38831	876.88361	-1442.98828							-85.69411	420.27835	-1592.96863	-415.54501	408.54822	-1536.40723	-114.66213	48.86879	-1618.47913				
97	0.960																															41.31730	727.87976	-1567.47815				-138.46178	876.67542	-1443.44763							-85.63886	420.33688	-1592.74902	-415.91525	408.00940	-1538.32178	-114.59284	48.96420	-1618.20056				
98	0.970																															41.42095	727.89764	-1567.22241				-138.50372	876.49066	-1443.70154							-85.63886	420.33688	-1592.74902	-416.24509	407.53500	-1540.02832	-114.54836	49.08596	-1617.89221				
99	0.980																															41.54182	728.00659	-1566.70190				-139.24858	876.72321	-1441.68286							-85.61871	420.41394	-1592.54150	-416.58627	406.95187	-1541.77209	-114.54836	49.08596	-1617.89221				
100	0.990																															41.60023	727.99402	-1566.61511				-139.84280	876.50427	-1440.09436							-85.67125	420.50671	-1592.41125	-416.69437	406.75430	-1542.32153	-113.66339	49.29940	-1618.36633				
101	1.000																															41.71068	728.08905	-1566.15088				-140.48494	876.91846	-1438.92969							-86.28207	419.97119	-1591.58081	-417.15192	407.65591	-1541.26221	-113.66339	49.29940	-1618.36633				
102	1.010																															42.29380	727.66290	-1564.66748				-140.58122	876.56903	-1439.51892							-86.38012	420.03909	-1591.57813	-417.24924	407.49182	-1541.75989	-113.42561	49.23193	-1618.25452				
103	1.020																															41.63876	726.55402	-1562.02600				-140.65906	876.28381	-1439.99451							-86.38012	420.03909	-1591.57813	-417.39224	407.23022	-1542.48633	-113.38380	49.28806	-1618.08936				
104	1.030																															41.85366	726.44653	-1561.39453				-140.76779	875.95880	-1440.66858							-86.43903	420.21075	-1591.27759	-417.49805	407.05298	-1543.02759	-113.26340	49.16603	-1618.22107				
105	1.040																															41.01590	725.53961	-1559.65637				-141.34718	875.87286	-1439.00513							-86.30491	420.34003	-1590.77393	-417.68393	407.60800	-1543.36365	-113.11327	49.20008	-1617.98682				
106	1.050																															41.27435	725.62256	-1558.52490				-141.39143	875.72601	-1439.27722							-86.30491	420.34003	-1590.77393	-418.84579	408.91412	-1539.67468	-113.13301	49.34116	-1617.70605				
107	1.060																															41.29026	725.58356	-1557.98279				-142.42007	875.68402	-1436.44116							-86.61584	419.65488	-1590.03210	-418.97491	408.81137	-1540.36121	-113.11327	49.20008	-1617.98682				
108	1.070																															40.82502	725.14587	-1557.50464				-142.54314	875.39978	-1437.21387							-86.37685	419.86044	-1589.19165	-419.11423	408.64322	-1541.08838	-112.96464	49.32983	-1617.54944				
109	1.080																															41.11324	724.79956	-1556.71899				-143.44592	875.88763	-1435.72742							-87.04435	419.53229	-1588.49304	-419.47198	408.13269	-1542.93665	-112.96464	49.32983	-1617.54944				
110	1.090																															41.32421	724.93402	-1555.95349				-143.69415	874.86365	-1436.11365							-87.35256	418.79214	-1587.64343	-420.47385	409.27646	-1542.86646	-112.81756	49.22831	-1617.60901				
111	1.100																															41.52694	725.00586	-1555.36267				-143.88171	874.51569	-1437.30127							-87.36713	418.87518	-1587.47668	-421.60394	409.44589	-1543.00916	-112.94269	49.46554	-1617.23535				
112	1.110																															40.52100	724.32172	-1552.67505				-144.90302	875.04242	-1435.74207							-87.21002	418.91467	-1587.14270	-422.08670	409.48453	-1545.93250	-112.59645	49.54477	-1616.69434				
113	1.120																															40.64287	724.26727	-1552.56665				-145.08258	874.70990	-1436.87781							-87.10925	418.99442	-1586.80444	-422.59363	408.77136	-1548.54980	-112.59645	49.54477	-1616.69434				
114	1.130																															40.75982	724.28088	-1552.29688				-146.22392	874.33380	-1436.99829							-87.02848	419.11218	-1586.41052	-423.59988	408.68048	-1548.05859	-112.01380	48.94926	-1616.31616				
115	1.140																															40.83613	724.34924	-1551.97119				-146.60860	873.64276	-1439.43115							-87.31589	418.39603	-1585.16565	-423.85913	408.31699	-1549.39575	-112.00539	49.07928	-1616.02893				
116	1.150																															40.55202	723.46912	-1549.36572				-147.79033	872.93713	-1438.00159							-87.28998	418.63010	-1584.59167	-423.94217	408.27042	-1549.84045	-112.00539	49.07928	-1616.02893				
117	1.160																															40.18642	722.38428	-1547.44092				-147.81252	871.93903	-1439.14758							-87.28998	418.63010	-1584.59167	-424.12225	409.06006	-1549.79968	-111.84891	49.02657	-1615.97388				
118	1.170																															40.30170	722.38593	-1547.20471				-147.96822	871.62946	-1440.12756							-87.03717	418.64313	-1584.17017	-424.20462	409.10648	-1550.26257	-111.72555	49.06808	-1615.75281				
119	1.180																															40.50142	722.39874	-1546.77087				-148.10846	871.30878	-1441.00500							-86.94122	418.07626	-1583.25671	-423.68683	408.82568	-1552.74976	-111.72555	49.06808	-1615.75281				
120	1.190																															40.89088	721.95538	-1546.51660				-148.78893	871.02966	-1439.98450							-86.94122	418.07626	-1583.25671	-424.20810	409.86484	-1551.15259	-111.72555	49.06808	-1615.75281				
121	1.200																															39.82533	721.17664	-1543.71082				-150.10999	871.88348	-1436.42493							-86.26953	417.99707	-1582.64880	-424.62656	411.03757	-1550.01770	-111.92022	47.99058	-1614.71594				
122	1.210																															39.92490	721.22046	-1543.40125				-150.17668	871.58301	-1436.82202							-86.05190	417.58365	-1582.22705	-424.69434	411.00385	-1550.38135	-111.91812	48.11778	-1614.44153				
123	1.220																															39.70307	721.26013	-1543.38232				-150.66045	871.09241	-1435.24158							-85.89987	417.65942	-1581.81836	-424.70801	411.06055	-1550.46973	-111.91812	48.11778	-1614.44153				
124	1.230																															40.22634	721.47766	-1543.24744				-150.77853	870.49609	-1435.93494							-85.80159	417.65497	-1581.67590	-424.76749	411.02374	-1550.78711	-111.91812	48.11778	-1614.44153				
125	1.240																															40.19806	721.42664	-1542.78894				-150.99706	869.24823	-1436.09045							-85.60875	417.61890	-1581.45923	-424.80469	411.04559	-1550.99609	-111.91812	48.11778	-1614.44153				
126	1.250																															40.41558	721.15320	-1541.89099				-151.95482	869.43976	-1434.07849							-86.12716	417.17282	-1580.28857	-424.84381	411.04279	-1551.20972	-111.91812	48.11778	-1614.44153				
127	1.260																															40.35033	720.79254	-1540.92322				-152.02664	869.17035	-1434.51038							-86.12716	417.17282	-1580.28857	-424.89902	411.01471	-1551.50549	-111.68771	48.21723	-1613.98206				
128	1.270																															40.38223	720.15192	-1539.33252				-152.77277	868.55945	-1432.39795							-86.00549	417.25607	-1579.91064	-425.02191	410.86609	-1552.14429	-111.36974	48.38414	-1613.28479				
129	1.280																															40.41581	719.76099	-1538.38330				-153.09229	868.06781	-1431.55151							-85.79590	417.33447	-1579.40796	-425.15274	410.73358	-1552.82996	-111.40259	48.53019	-1613.00720				
130	1.290																															40.07265	719.40912	-1538.19470				-153.62801	868.05347	-1429.63440							-85.69823	417.30914	-1579.31482	-425.29324	410.50305	-1553.54639	-111.40259	48.53019	-1613.00720				
131	1.300																															39.73571	719.16162	-1536.71069				-153.65373	867.94092	-1429.78687							-85.64078	417.43414	-1578.94092	-425.47278	410.21365	-1554.46277	-111.40259	48.53019	-1613.00720				
132	1.310																															39.60239	718.72131	-1535.15259				-153.68701	867.81427	-1429.98657							-85.58900	417.51791	-1578.67004	-425.63156	409.96231	-1555.27441	-111.72005	47.41216	-1612.19006				
133	1.320																															39.92932	718.34869	-1534.36108				-153.69913	867.68610	-1430.04797							-85.77975	417.00665	-1577.35217	-425.68582	409.88968	-1555.55469	-112.40463	46.55340	-1611.39160				
134	1.330																															40.76281	718.56342	-1533.86597				-152.97906	865.96191	-1432.29309							-85.53381	416.96225	-1577.07446	-425.73022	409.82111	-1555.78210	-112.40463	46.55340	-1611.39160				
135	1.340																															40.89445	718.59253	-1533.20801				-153.19954	865.23621	-1431.05835							-85.99911	417.07816	-1576.45557	-425.71225	409.85681	-1555.69189	-111.39319	47.42018	-1611.82373				
136	1.350																															41.09053	718.61835	-1532.42859				-153.38121	864.60376	-1429.94324							-85.60178	416.84546	-1576.09644	-425.61017	410.03268	-1555.17322	-111.80309	46.34759	-1611.19080				
137	1.360																															41.32297	718.56726	-1531.67468				-153.39540	864.34924	-1430.00317							-85.31260	416.65189	-1575.84814	-425.49518	410.25391	-1554.59448	-111.73775	46.53782	-1610.71411				
138	1.370																															41.73541	718.36499	-1530.51733				-153.46800	863.92871	-1430.42053							-85.07772	416.79422	-1575.01477	-425.29300	410.59140	-1553.56494	-111.73775	46.53782	-1610.71411				
